<svg width="113" height="72" viewBox="0 0 113 72" fill="none" xmlns="http://www.w3.org/2000/svg">
<path d="M71.6707 37.8017C70.3072 38.1071 68.9791 38.6728 67.769 39.4633C64.6162 41.4722 62.7819 44.3399 63.6722 45.8678C64.5625 47.3958 67.8401 47.005 70.9929 44.9961C72.2193 44.2336 73.3089 43.2591 74.1944 42.1328C74.6054 41.5886 74.6791 40.9106 74.3828 40.4037L73.2262 38.4188C72.9319 37.9103 72.3215 37.6685 71.6707 37.8017Z" fill="#D5D6DB"/>
<path d="M63.7535 10.7054C62.7648 10.927 61.8017 11.3373 60.9241 11.9106C58.6386 13.3669 57.3078 15.4462 57.9528 16.5532C58.5979 17.6602 60.9754 17.3766 63.2607 15.9204C64.15 15.3673 64.9399 14.6603 65.5822 13.8436C65.8798 13.4491 65.9331 12.9579 65.7183 12.5904L64.8808 11.1532C64.6677 10.7846 64.2254 10.6089 63.7535 10.7054Z" fill="#D5D6DB"/>
<path d="M50.8904 11.8401C50.6704 11.8156 50.4357 11.8742 50.2321 12.0042L44.8635 15.4255C44.4144 15.7108 44.2347 16.2602 44.4625 16.6529C44.5146 16.7429 44.5859 16.8197 44.6724 16.8789L57.9045 25.9986L75.8062 14.5905L50.8904 11.8401Z" fill="#029BC5"/>
<path d="M107.483 10.5506L58.7653 41.2196L29.9428 52.6887L15.2436 55.6105L13.6265 52.8629L94.8311 2.72521C97.2511 1.22461 99.947 0.303548 102.646 0.055512C103.828 -0.0467718 104.995 -0.00746163 106.121 0.172019C107.119 0.323303 108.065 0.615128 108.932 1.03883C109.9 1.5189 111.741 1.57426 112.338 2.53073C112.34 2.52919 113.747 6.92034 107.483 10.5506Z" fill="#E1E6E9"/>
<path d="M59.4111 37.1615L38.3356 70.7595C38.0723 71.2315 38.2286 71.76 38.6842 71.9399C38.9638 72.0504 39.3061 72.0067 39.5936 71.824L44.958 68.4209C45.9898 67.7661 46.9034 66.9343 47.6423 65.9771L88.5145 17.925L59.4111 37.1615Z" fill="#029BC5"/>
<path d="M6.2289 36.0398C5.87734 35.9196 5.45896 35.982 5.10578 36.2069L0.671392 39.031C0.0671738 39.4156 -0.173594 40.1548 0.133437 40.6825C0.191936 40.7828 0.267925 40.8711 0.359009 40.9438L12.7831 50.8941L25.8459 42.7349L6.2289 36.0398Z" fill="#029BC5"/>
<path d="M16.9474 52.6878L10.2605 62.053C10.1624 62.1876 10.1855 62.3566 10.3119 62.4302C10.4031 62.4832 10.5276 62.4737 10.6288 62.4059L14.7728 59.7799C14.805 59.7595 14.8341 59.7339 14.8582 59.7047L24.629 47.8247L16.9474 52.6878Z" fill="#029BC5"/>
<path d="M105.321 0.575794C104.162 0.389653 102.96 0.349905 101.743 0.456921C100.557 2.11431 99.7996 3.97612 99.5453 5.85671C99.5267 6.23446 99.8312 6.50636 100.226 6.46403C100.348 6.45071 100.47 6.40764 100.58 6.33862L108.217 1.47581C107.324 1.03553 106.349 0.732528 105.321 0.575794Z" fill="#029BC5"/>
<path d="M88.6786 9.51796L93.6646 6.369L98.3089 14.2681L93.3229 17.4171L88.6786 9.51796Z" fill="#D5D6DB"/>
<path d="M85.5411 12.6421C84.9403 13.0227 84.7001 13.7543 85.0052 14.276L85.4994 15.1212C85.8244 15.6296 86.5666 15.719 87.1571 15.3207C87.7191 14.9415 87.9454 14.2522 87.6745 13.7432L87.1803 12.898C86.8756 12.3768 86.1419 12.2621 85.5411 12.6421Z" fill="#3A556A"/>
<path d="M81.0597 15.4251C80.4589 15.8057 80.2187 16.5373 80.5237 17.059L81.0179 17.9042C81.343 18.4126 82.0851 18.502 82.6756 18.1038C83.2376 17.7246 83.4639 17.0353 83.1931 16.5263L82.6989 15.6811C82.3939 15.16 81.6603 15.0453 81.0597 15.4251Z" fill="#3A556A"/>
<path d="M76.5767 18.2091C75.9766 18.5902 75.7373 19.3209 76.0421 19.8421L76.5363 20.6873C76.8613 21.1957 77.6035 21.2851 78.194 20.8869C78.7559 20.5076 78.9822 19.8184 78.7114 19.3094L78.2172 18.4642C77.9122 17.9426 77.1778 17.8283 76.5767 18.2091Z" fill="#3A556A"/>
<path d="M72.0953 20.9921C71.4951 21.3732 71.2559 22.1039 71.5606 22.6252L72.0548 23.4704C72.3799 23.9788 73.122 24.0682 73.7125 23.6699C74.2745 23.2907 74.5008 22.6014 74.23 22.0924L73.7358 21.2472C73.4305 20.7257 72.6961 20.6115 72.0953 20.9921Z" fill="#3A556A"/>
<path d="M67.6143 23.7753C67.0138 24.1566 66.7743 24.8876 67.0793 25.4091L67.5738 26.2547C67.8786 26.7759 68.6126 26.8901 69.2133 26.5096C69.814 26.1292 70.0538 25.3982 69.7489 24.877L69.2545 24.0314C68.9504 23.5097 68.2166 23.3948 67.6156 23.7745C67.615 23.7749 67.6148 23.775 67.6143 23.7753Z" fill="#3A556A"/>
<path d="M63.1329 26.5584C62.5323 26.9397 62.2929 27.6707 62.5978 28.1922L63.0923 29.0377C63.3972 29.559 64.1312 29.6731 64.7319 29.2927C65.3325 28.9123 65.5724 28.1813 65.2675 27.66L64.773 26.8145C64.469 26.2927 63.7352 26.1778 63.1341 26.5576C63.1336 26.5579 63.1331 26.5583 63.1329 26.5584Z" fill="#3A556A"/>
<path d="M58.6512 29.3416C58.0506 29.7228 57.8112 30.4538 58.1162 30.9753L58.6106 31.8208C58.9162 32.3416 59.6506 32.4546 60.2506 32.0736C60.8496 31.6934 61.0889 30.9639 60.7855 30.4433L60.2911 29.5978C59.9863 29.0762 59.2523 28.9614 58.6512 29.3416Z" fill="#3A556A"/>
<path d="M54.1695 32.1247C53.569 32.5059 53.3295 33.237 53.6345 33.7584L54.129 34.604C54.4345 35.1248 55.169 35.2378 55.769 34.8568C56.368 34.4765 56.6073 33.7471 56.3038 33.2265L55.8094 32.3809C55.5047 31.8593 54.7706 31.7445 54.1695 32.1247Z" fill="#3A556A"/>
<path d="M49.6882 34.9077C49.0876 35.2889 48.8482 36.0199 49.1532 36.5414L49.6476 37.3869C49.9532 37.9077 50.6876 38.0207 51.2877 37.6398C51.8866 37.2595 52.126 36.5301 51.8225 36.0094L51.3281 35.1639C51.0231 34.6424 50.2891 34.5277 49.6882 34.9077Z" fill="#3A556A"/>
<path d="M45.2053 37.6915C44.6046 38.072 44.3648 38.8029 44.6696 39.3242L44.6703 39.3253L45.1647 40.1709C45.4703 40.6916 46.2047 40.8046 46.8048 40.4237C47.4037 40.0434 47.6431 39.314 47.3396 38.7933L46.8452 37.9478C46.5405 37.4261 45.8064 37.3114 45.2053 37.6915Z" fill="#3A556A"/>
<path d="M40.725 40.4738C40.1243 40.8543 39.8845 41.5852 40.1893 42.1064L40.19 42.1075L40.6844 42.9531C40.99 43.4738 41.7244 43.5868 42.3245 43.2059C42.9235 42.8256 43.1628 42.0962 42.8594 41.5756L42.3649 40.73C42.0599 40.2086 41.3259 40.0938 40.725 40.4738Z" fill="#3A556A"/>
</svg>
