<svg width="97" height="253" viewBox="0 0 97 253" fill="none" xmlns="http://www.w3.org/2000/svg">
<path d="M8.45839 13.7343C15.4852 5.21794 33.2529 -7.87602 48.1095 7.87931C62.9662 23.6346 42.9231 53.1227 31.0445 65.8972C25.1888 69.4457 12.9756 75.4782 10.9679 71.22C8.45838 65.8972 6.95264 54.7195 27.5311 45.1385C40.7481 39.4609 69.2903 33.4285 77.7224 54.7195C81.5704 63.9456 82.2396 85.3785 54.1325 97.3014L18.9986 112.737M18.9986 112.737C5.61421 113.274 -13.6258 106.892 16.489 77.075C26.0254 72.462 49.1134 63.1294 65.1746 62.7036C74.3764 64.6553 92.0772 74.3072 89.2665 97.3014C89.6011 101.914 83.3439 113.376 55.6383 122.318C49.2807 123.738 35.0598 126.683 29.0369 127.109L7.45461 130.302L18.9986 112.737ZM18.9986 112.737C27.781 110.253 48.5086 106.031 61.1593 109.011C76.9727 112.737 83.2435 109.544 95.7913 130.302C97.9663 140.948 96.3936 162.771 72.7033 164.9C49.013 167.029 33.7214 162.949 29.0369 160.642V140.948M29.0369 140.948C46.2692 142.545 83.2435 141.374 93.2818 123.915C98.1336 111.495 98.5017 86.1237 61.1593 83.9946C52.1249 84.3494 32.8514 85.4849 28.0331 87.1882L29.0369 124.98C46.6038 126.577 83.5447 134.135 90.7722 151.593C94.6202 161.707 95.8917 182.998 70.1938 187.256C60.6574 187.611 39.0752 186.298 29.0369 178.207M29.0369 140.948V178.207M29.0369 140.948C39.9117 143.609 63.8697 150.955 72.7033 159.045C83.4108 167.917 99.104 189.917 76.2167 206.95C69.0226 209.611 49.9164 211.74 31.0445 198.966M29.0369 178.207L31.0445 198.966M29.0369 178.207C41.0828 186.724 65.6766 207.376 67.6842 221.854C68.5207 230.725 66.2789 249.213 50.6192 252.193C46.6038 252.903 36.666 252.832 29.0369 246.871L31.0445 198.966" stroke="#84829A"/>
</svg>
