<svg width="1170" height="407" viewBox="0 0 1170 407" fill="none" xmlns="http://www.w3.org/2000/svg">
<path opacity="0.2" d="M1170 20C1170 8.9543 1161.05 0 1150 0H129C57.7552 0 0 57.7553 0 129V387C0 398.046 8.95435 407 20 407H1150C1161.05 407 1170 398.046 1170 387V20Z" fill="#DFD7F9"/>
<g opacity="0.1">
<mask id="mask0_2702_1517" style="mask-type:alpha" maskUnits="userSpaceOnUse" x="906" y="0" width="264" height="352">
<path d="M1146 0.5C1158.98 0.5 1169.5 11.0213 1169.5 24V351.021H956C928.662 351.021 906.5 328.86 906.5 301.521V0.5H1146Z" fill="url(#paint0_linear_2702_1517)" stroke="#6246E5"/>
</mask>
<g mask="url(#mask0_2702_1517)">
<path d="M1145.02 86.5168C1195.72 86.517 1236.82 127.619 1236.82 178.321C1236.82 229.022 1195.72 270.124 1145.02 270.124C1094.31 270.124 1053.21 229.022 1053.21 178.321C1053.21 127.619 1094.31 86.5168 1145.02 86.5168Z" stroke="#6246E5"/>
<circle cx="1137.73" cy="168.604" r="102.734" stroke="#6246E5"/>
<circle cx="1131.66" cy="160.71" r="112.45" stroke="#6246E5"/>
<circle cx="1125.58" cy="149.171" r="120.952" stroke="#6246E5"/>
<circle cx="1119.81" cy="137.937" r="129.15" stroke="#6246E5"/>
<circle cx="1110.1" cy="125.185" r="141.902" stroke="#6246E5"/>
</g>
</g>
<g opacity="0.1">
<mask id="mask1_2702_1517" style="mask-type:alpha" maskUnits="userSpaceOnUse" x="-87" y="46" width="480" height="361">
<rect x="392.5" y="46.5" width="360" height="479" transform="rotate(90 392.5 46.5)" fill="url(#paint1_linear_2702_1517)" stroke="#6246E5"/>
</mask>
<g mask="url(#mask1_2702_1517)">
<path d="M275.045 374.202C275.045 443.635 218.838 499.92 149.506 499.92C80.1728 499.92 23.9656 443.635 23.9656 374.202C23.9656 304.769 80.1728 248.484 149.506 248.484C218.838 248.485 275.045 304.77 275.045 374.202Z" stroke="#6246E5"/>
<path d="M303.238 364.238C303.238 441.925 240.349 504.903 162.773 504.903C85.1969 504.903 22.3073 441.925 22.3071 364.238C22.3071 286.55 85.1969 223.573 162.773 223.573C240.349 223.573 303.238 286.55 303.238 364.238Z" stroke="#6246E5"/>
<path d="M327.285 355.934C327.284 440.959 258.455 509.885 173.552 509.885C88.649 509.885 19.8201 440.959 19.8198 355.934C19.8198 270.909 88.6488 201.983 173.552 201.983C258.456 201.983 327.285 270.909 327.285 355.934Z" stroke="#6246E5"/>
<path d="M354.649 347.63C354.649 439.076 280.622 513.207 189.307 513.207C97.9925 513.206 23.9664 439.076 23.9663 347.63C23.9663 256.185 97.9925 182.054 189.307 182.054C280.622 182.054 354.649 256.185 354.649 347.63Z" stroke="#6246E5"/>
<path d="M381.183 339.741C381.183 437.378 302.144 516.528 204.647 516.528C107.15 516.527 28.112 437.378 28.1121 339.741C28.1121 242.105 107.15 162.956 204.647 162.955C302.144 162.955 381.183 242.104 381.183 339.741Z" stroke="#6246E5"/>
<path d="M416.01 326.456C416.01 433.724 329.175 520.68 222.061 520.68C114.947 520.68 28.1118 433.723 28.1116 326.456C28.1116 219.188 114.947 132.232 222.061 132.231C329.175 132.231 416.01 219.188 416.01 326.456Z" stroke="#6246E5"/>
</g>
</g>
<defs>
<linearGradient id="paint0_linear_2702_1517" x1="1093.24" y1="9.86233" x2="911.232" y2="354.286" gradientUnits="userSpaceOnUse">
<stop stop-color="#747DEF"/>
<stop offset="1" stop-color="#5E3BE1"/>
</linearGradient>
<linearGradient id="paint1_linear_2702_1517" x1="649.035" y1="59.4669" x2="400.704" y2="530.066" gradientUnits="userSpaceOnUse">
<stop stop-color="#747DEF"/>
<stop offset="1" stop-color="#5E3BE1"/>
</linearGradient>
</defs>
</svg>
